<svg 
 xmlns="http://www.w3.org/2000/svg"
 xmlns:xlink="http://www.w3.org/1999/xlink"
 width="880px" height="811px">
<path fill-rule="evenodd"  fill="rgb(255, 0, 0)"
 d="M313.000,0.000 L879.268,0.000 L879.000,607.000 L573.000,773.000 C573.000,773.000 530.601,792.131 498.000,799.000 C498.000,799.000 455.498,810.329 423.000,810.000 C423.000,810.000 376.754,810.737 361.000,808.000 C361.000,808.000 272.030,802.242 187.000,747.000 C187.000,747.000 127.668,710.797 100.000,673.000 C100.000,673.000 57.662,624.439 35.000,571.000 C35.000,571.000 11.909,528.331 1.000,436.000 C1.000,436.000 -6.501,329.550 34.000,247.000 C34.000,247.000 53.440,186.119 132.000,110.000 C132.000,110.000 163.106,76.590 242.000,37.000 L313.000,0.000 Z"/>
</svg>