<svg 
 xmlns="http://www.w3.org/2000/svg"
 xmlns:xlink="http://www.w3.org/1999/xlink"
 width="526px" height="529px">
<path fill-rule="evenodd"  fill="rgb(22, 22, 22)"
 d="M385.266,431.880 C423.003,422.029 459.822,410.121 487.548,382.634 C515.275,355.147 527.110,315.582 525.884,276.512 C523.243,192.354 421.179,157.609 405.147,147.139 C374.703,127.257 353.324,94.732 340.005,60.845 C322.396,16.045 291.402,-3.784 255.329,0.576 C208.584,6.226 202.462,39.197 155.217,50.939 C119.993,59.694 50.915,18.042 10.079,90.902 C-28.393,159.541 55.023,197.928 63.523,283.689 C66.913,317.892 50.520,398.993 55.824,432.951 C61.127,466.909 76.765,501.723 106.717,518.455 C136.930,535.332 175.163,530.069 206.675,515.776 C238.187,501.483 265.573,479.621 294.808,461.093 C337.329,434.146 365.005,437.170 385.266,431.880 Z"/>
</svg>